<?xml version="1.0" encoding="utf-8"?>
<!-- Generator: Adobe Illustrator 26.0.1, SVG Export Plug-In . SVG Version: 6.00 Build 0)  -->
<svg version="1.1" id="Layer_1" xmlns="http://www.w3.org/2000/svg" xmlns:xlink="http://www.w3.org/1999/xlink" x="0px" y="0px"
	 viewBox="0 0 600 225" style="enable-background:new 0 0 600 225;" xml:space="preserve">
<style type="text/css">
	.st0{fill:#3039E5;}
	.st1{fill:#040940;}
</style>
<g>
	<g>
		<g>
			<path class="st0" d="M77.8,76.9c0-17,13.8-30.8,30.8-30.8l0,0h4.9v30.8c0,17.9,14.5,32.4,32.4,32.4l0,0V76.9l0,0
				c0-17.9-14.5-32.4-32.4-32.4H77.8c-17.9,0-32.4,14.5-32.4,32.4l0,0H77.8L77.8,76.9z"/>
			<path class="st0" d="M77.8,112.5c17.9,0,32.4-14.5,32.4-32.4l0,0H77.8l0,0c-17.9,0-32.4,14.5-32.4,32.4v35.6
				c0,17.9,14.5,32.4,32.4,32.4l0,0v-32.4l0,0c-17,0-30.8-13.8-30.8-30.8l0,0v-4.9C47,112.5,77.8,112.5,77.8,112.5z"/>
			<path class="st0" d="M149.1,148.1L149.1,148.1c0,17-13.8,30.8-30.8,30.8h30.8l0,0h-35.6v-30.8c0-17.9-14.5-32.4-32.4-32.4v32.4
				l0,0c0,17.9,14.5,32.4,32.4,32.4l0,0h35.6c17.9,0,32.4-14.5,32.4-32.4l0,0L149.1,148.1L149.1,148.1z"/>
			<path class="st0" d="M149.1,112.5c-17.9,0-32.4,14.5-32.4,32.4h32.4l0,0c17.9,0,32.4-14.5,32.4-32.4l0,0V76.9
				c0-17.9-14.5-32.4-32.4-32.4l0,0v32.4l0,0c17,0,30.8,13.8,30.8,30.8l0,0v4.9C179.8,112.5,149.1,112.5,149.1,112.5z"/>
		</g>
		<g>
			<g>
				<path class="st1" d="M226.8,110.4l19.1-43.2h12l19.1,43.2h-12.7l-14.9-37.2h4.8l-14.9,37.2H226.8z M237.2,101.9l3.1-8.9h21.1
					l3.1,8.9H237.2z"/>
				<path class="st1" d="M280.5,110.4V67.2h12.2v43.2H280.5z"/>
				<path class="st1" d="M319.3,110.4V67.2h33.8v9.5h-21.6v33.7H319.3z M330.6,95.6v-9.4h19.9v9.4H330.6z"/>
				<path class="st1" d="M379.9,111.2c-3.4,0-6.6-0.6-9.5-1.7s-5.5-2.7-7.6-4.7c-2.1-2-3.8-4.4-5-7.2c-1.2-2.7-1.8-5.7-1.8-9
					c0-3.2,0.6-6.2,1.8-8.9c1.2-2.7,2.9-5.1,5-7.1c2.1-2,4.7-3.6,7.6-4.7c2.9-1.1,6.1-1.7,9.6-1.7s6.6,0.6,9.6,1.7
					c2.9,1.1,5.5,2.7,7.6,4.7c2.1,2,3.8,4.4,5,7.1c1.2,2.7,1.8,5.7,1.8,8.9c0,3.3-0.6,6.3-1.8,9c-1.2,2.7-2.9,5.1-5,7.1
					s-4.7,3.6-7.6,4.7C386.6,110.7,383.4,111.2,379.9,111.2z M379.9,101.1c1.6,0,3.2-0.3,4.6-0.9c1.4-0.6,2.6-1.4,3.7-2.5
					c1-1.1,1.9-2.4,2.5-3.9s0.9-3.2,0.9-5.1s-0.3-3.6-0.9-5.1c-0.6-1.5-1.4-2.8-2.5-3.9s-2.3-1.9-3.7-2.5c-1.4-0.6-3-0.9-4.6-0.9
					s-3.2,0.3-4.6,0.9c-1.4,0.6-2.7,1.4-3.7,2.5s-1.9,2.4-2.5,3.9c-0.6,1.5-0.9,3.2-0.9,5.1s0.3,3.6,0.9,5.1
					c0.6,1.5,1.4,2.8,2.5,3.9c1.1,1.1,2.3,1.9,3.7,2.5C376.8,100.8,378.3,101.1,379.9,101.1z"/>
				<path class="st1" d="M410.4,110.4V67.2h19.2c6.3,0,11.2,1.4,14.5,4.3c3.4,2.8,5.1,6.7,5.1,11.7c0,3.3-0.8,6.2-2.3,8.5
					c-1.5,2.3-3.8,4.1-6.6,5.4c-2.9,1.2-6.3,1.9-10.2,1.9h-13l5.5-5.2v16.7C422.6,110.4,410.4,110.4,410.4,110.4z M422.6,95.2
					l-5.5-5.7h12.2c2.5,0,4.5-0.6,5.7-1.7c1.3-1.1,1.9-2.7,1.9-4.7c0-1.9-0.6-3.5-1.9-4.6c-1.3-1.1-3.2-1.7-5.7-1.7h-12.2l5.5-5.6
					V95.2z M437,110.4l-10.7-15.7h13l10.8,15.7H437z"/>
				<path class="st1" d="M475.9,111.2c-6.4,0-11.3-1.8-14.9-5.2c-3.6-3.5-5.3-8.4-5.3-14.8v-24h12.2v23.6c0,3.7,0.7,6.3,2.2,7.9
					s3.4,2.4,6,2.4c2.5,0,4.5-0.8,6-2.4s2.1-4.2,2.1-7.9V67.2h12.1v24c0,6.4-1.8,11.3-5.4,14.8C487.2,109.5,482.2,111.2,475.9,111.2
					z"/>
				<path class="st1" d="M504.5,110.4V67.2h10l17.8,29.3h-5.3l17.5-29.3h10v43.2h-11.3V84.3h1.9l-13,21.8h-5.4l-13.4-21.8h2.3v26.1
					C515.7,110.4,504.5,110.4,504.5,110.4z"/>
			</g>
			<g>
				<path class="st1" d="M226.8,157.9v-29.2h13.7c3.5,0,6.1,0.7,8,2.1s2.8,3.2,2.8,5.5c0,1.6-0.4,2.9-1.1,4
					c-0.7,1.1-1.7,1.9-2.9,2.6c-1.2,0.6-2.5,0.9-3.9,0.9l0.8-1.5c1.6,0,3.1,0.3,4.4,0.9c1.3,0.6,2.3,1.5,3.1,2.6s1.1,2.6,1.1,4.3
					c0,2.5-0.9,4.5-2.9,5.9s-4.7,2.1-8.5,2.1L226.8,157.9L226.8,157.9z M232.3,153.6h8.8c2,0,3.6-0.3,4.6-1s1.6-1.7,1.6-3.2
					c0-1.4-0.5-2.5-1.6-3.2c-1.1-0.7-2.6-1-4.6-1h-9.2v-4.2h8.1c1.9,0,3.3-0.3,4.3-1s1.6-1.7,1.6-3c0-1.4-0.5-2.4-1.6-3.1
					s-2.5-1-4.3-1h-7.7L232.3,153.6L232.3,153.6z"/>
				<path class="st1" d="M257.2,157.9l13.2-29.2h5.4l13.2,29.2h-5.7l-11.3-26.4h2.2l-11.3,26.4H257.2z M263.2,151.1l1.5-4.3h15.8
					l1.5,4.3H263.2z"/>
				<path class="st1" d="M295.7,157.9v-29.2h4.5l18.3,22.6h-2.2v-22.6h5.4v29.2h-4.5l-18.3-22.6h2.2v22.6H295.7z"/>
				<path class="st1" d="M346.3,158.3c-2.3,0-4.4-0.4-6.3-1.1s-3.6-1.8-5-3.1c-1.4-1.4-2.5-2.9-3.3-4.8s-1.2-3.8-1.2-6
					s0.4-4.2,1.2-6s1.9-3.4,3.3-4.8s3.1-2.4,5-3.1c1.9-0.7,4-1.1,6.4-1.1c2.5,0,4.7,0.4,6.7,1.2c2,0.8,3.7,2,5,3.6l-3.4,3.3
					c-1.1-1.1-2.4-2-3.7-2.5c-1.3-0.5-2.8-0.8-4.4-0.8c-1.6,0-3,0.2-4.3,0.8s-2.4,1.2-3.4,2.1c-1,0.9-1.7,2-2.2,3.3
					c-0.5,1.2-0.8,2.6-0.8,4.1c0,1.5,0.3,2.9,0.8,4.1c0.5,1.3,1.3,2.4,2.2,3.3c1,0.9,2.1,1.6,3.3,2.1s2.7,0.8,4.3,0.8
					c1.5,0,2.9-0.2,4.2-0.7s2.6-1.2,3.9-2.3l3,4.1c-1.5,1.2-3.3,2.1-5.3,2.8C350.5,158,348.4,158.3,346.3,158.3z M357.7,154.6
					l-5.1-0.7v-10.9h5.1V154.6z"/>
				<path class="st1" d="M368,157.9v-29.2h5.4v24.6h15.3v4.6L368,157.9L368,157.9z"/>
				<path class="st1" d="M392,157.9l13.2-29.2h5.4l13.2,29.2H418l-11.3-26.4h2.2l-11.3,26.4H392z M398.1,151.1l1.5-4.3h15.8l1.5,4.3
					H398.1z"/>
				<path class="st1" d="M430.5,157.9v-29.2h12.8c3.1,0,5.9,0.6,8.3,1.8s4.3,2.9,5.6,5.1s2,4.8,2,7.7s-0.7,5.5-2,7.7
					s-3.2,3.9-5.6,5.1c-2.4,1.2-5.2,1.8-8.3,1.8L430.5,157.9L430.5,157.9z M435.9,153.3h7.1c2.2,0,4.1-0.4,5.7-1.2
					c1.6-0.8,2.9-2,3.8-3.5c0.9-1.5,1.4-3.3,1.4-5.3c0-2.1-0.5-3.8-1.4-5.3c-0.9-1.5-2.2-2.6-3.8-3.5s-3.5-1.2-5.7-1.2h-7.1V153.3z"
					/>
				<path class="st1" d="M468.1,157.9v-29.2h21.3v4.6h-15.9v20.1h16.5v4.6L468.1,157.9L468.1,157.9z M473.1,145.2v-4.5h14.5v4.5
					H473.1z"/>
				<path class="st1" d="M508.4,158.3c-2.3,0-4.5-0.3-6.5-1s-3.7-1.5-5-2.5l1.9-4.2c1.2,0.9,2.6,1.7,4.3,2.3
					c1.7,0.6,3.5,0.9,5.3,0.9c1.5,0,2.8-0.2,3.7-0.5c1-0.3,1.6-0.8,2.1-1.4c0.4-0.6,0.7-1.2,0.7-1.9c0-0.9-0.3-1.6-1-2.1
					s-1.5-1-2.5-1.3c-1-0.3-2.1-0.6-3.4-0.9c-1.2-0.3-2.5-0.6-3.7-1s-2.4-0.9-3.4-1.5c-1-0.6-1.9-1.4-2.5-2.4s-0.9-2.3-0.9-3.8
					c0-1.6,0.4-3,1.3-4.4c0.9-1.3,2.1-2.4,3.9-3.2s4-1.2,6.6-1.2c1.8,0,3.5,0.2,5.2,0.7s3.2,1.1,4.5,1.9l-1.7,4.2
					c-1.3-0.8-2.7-1.4-4-1.7c-1.4-0.4-2.7-0.6-4-0.6c-1.5,0-2.7,0.2-3.6,0.5c-1,0.4-1.6,0.8-2.1,1.4s-0.6,1.3-0.6,2
					c0,0.9,0.3,1.6,0.9,2.1s1.5,1,2.5,1.3s2.1,0.6,3.4,0.9s2.5,0.6,3.7,1c1.2,0.4,2.3,0.9,3.4,1.5s1.9,1.4,2.5,2.4s0.9,2.2,0.9,3.8
					c0,1.6-0.4,3-1.3,4.3c-0.8,1.3-2.2,2.4-3.9,3.2C513.2,157.9,511,158.3,508.4,158.3z"/>
				<path class="st1" d="M528.7,157.9v-29.2h5.4v29.2H528.7z M533.7,145.3v-4.6h16v4.6H533.7z M549.2,157.9v-29.2h5.4v29.2H549.2z"
					/>
			</g>
		</g>
	</g>
</g>
</svg>
