<svg xmlns="http://www.w3.org/2000/svg" viewBox="40 39 145 146">
	<rect x="40" y="39" width="145" height="146" rx="28" fill="#040940"/>
	<g fill="#22d3ee" opacity="0.95" transform="translate(0,0)">
		<path d="M77.8,76.9c0-17,13.8-30.8,30.8-30.8l0,0h4.9v30.8c0,17.9,14.5,32.4,32.4,32.4l0,0V76.9l0,0 c0-17.9-14.5-32.4-32.4-32.4H77.8c-17.9,0-32.4,14.5-32.4,32.4l0,0H77.8L77.8,76.9z" fill="#7d84f5"/>
		<path d="M77.8,112.5c17.9,0,32.4-14.5,32.4-32.4l0,0H77.8l0,0c-17.9,0-32.4,14.5-32.4,32.4v35.6 c0,17.9,14.5,32.4,32.4,32.4l0,0v-32.4l0,0c-17,0-30.8-13.8-30.8-30.8l0,0v-4.9C47,112.5,77.8,112.5,77.8,112.5z" fill="#4a53f0"/>
		<path d="M149.1,148.1L149.1,148.1c0,17-13.8,30.8-30.8,30.8h30.8l0,0h-35.6v-30.8c0-17.9-14.5-32.4-32.4-32.4v32.4 l0,0c0,17.9,14.5,32.4,32.4,32.4l0,0h35.6c17.9,0,32.4-14.5,32.4-32.4l0,0L149.1,148.1L149.1,148.1z" fill="#22d3ee"/>
		<path d="M149.1,112.5c-17.9,0-32.4,14.5-32.4,32.4h32.4l0,0c17.9,0,32.4-14.5,32.4-32.4l0,0V76.9 c0-17.9-14.5-32.4-32.4-32.4l0,0v32.4l0,0c17,0,30.8,13.8,30.8,30.8l0,0v4.9C179.8,112.5,149.1,112.5,149.1,112.5z" fill="#4a53f0"/>
	</g>
</svg>
